<svg width="100" height="100" viewBox="0 0 100 100" fill="none" xmlns="http://www.w3.org/2000/svg">
<circle cx="50" cy="50" r="50" fill="url(#paint0_linear_25_12)"/>
<path fill-rule="evenodd" clip-rule="evenodd" d="M33.9005 49.1038C32.652 46.059 31.6429 43.0871 30.8855 40.2666C29.4202 40.5852 28.0442 40.9495 26.7711 41.3548C23.7281 42.3233 21.354 43.4995 19.7515 44.7775C18.1476 46.0566 17.4572 47.3152 17.3998 48.4772C17.3509 49.4676 17.7491 50.5628 18.7756 51.7516C19.8094 52.9489 21.4149 54.1574 23.5678 55.299C24.3243 55.7001 24.6086 56.6317 24.2029 57.3796C23.7972 58.1276 22.8551 58.4088 22.0986 58.0076C19.7407 56.7574 17.7797 55.3319 16.4114 53.7473C15.0359 52.1544 14.1965 50.32 14.2949 48.3274C14.4109 45.9774 15.7971 43.9824 17.7999 42.3851C19.8043 40.7867 22.5672 39.4638 25.8185 38.429C27.1728 37.998 28.626 37.6125 30.1644 37.2763C29.8545 35.8187 29.6191 34.4133 29.4601 33.0726C29.0623 29.7184 29.1323 26.6839 29.7709 24.2174C30.409 21.7527 31.6691 19.6775 33.7832 18.5975C35.6486 17.6444 37.7757 17.6763 39.8953 18.3235C42.0063 18.9681 44.2257 20.2525 46.4476 21.9955C47.1201 22.5231 47.2327 23.4897 46.6992 24.1546C46.1656 24.8195 45.188 24.9309 44.5155 24.4033C42.473 22.801 40.5956 21.7542 38.9781 21.2602C37.3692 20.769 36.136 20.8551 35.2101 21.3281C34.1647 21.8622 33.2934 23.0058 32.7824 24.9795C32.2719 26.9515 32.1752 29.5754 32.5475 32.7146C32.6971 33.9754 32.9206 35.3057 33.217 36.693C36.1662 36.2055 39.3622 35.8852 42.7257 35.7544C46.6266 30.8689 50.722 26.8532 54.584 24.0418C57.3345 22.0396 60.0357 20.5974 62.5193 19.9249C65.0011 19.2528 67.4484 19.308 69.4441 20.5894C71.2203 21.7299 72.2475 23.5944 72.723 25.7593C73.1968 27.9159 73.1549 30.4886 72.7055 33.2934C72.5712 34.1317 71.775 34.7036 70.9272 34.5708C70.0793 34.438 69.5009 33.6507 69.6352 32.8124C70.0489 30.2306 70.0494 28.0691 69.6853 26.4116C69.323 24.7624 68.6323 23.733 67.7511 23.1671C66.7642 22.5335 65.3279 22.3511 63.3405 22.8893C61.3548 23.427 59.0013 24.643 56.427 26.517C53.3405 28.7638 50.0357 31.884 46.7902 35.6897C48.0779 35.6981 49.3842 35.7336 50.705 35.7973C60.2739 36.2591 68.9351 38.1222 75.214 40.8128C78.3479 42.1558 80.9674 43.7384 82.8048 45.5223C84.6408 47.3048 85.8239 49.4238 85.7079 51.7738C85.6107 53.741 84.6189 55.4674 83.1251 56.909C81.6397 58.3426 79.5923 59.5647 77.1748 60.5789C76.3845 60.9104 75.4721 60.5458 75.1368 59.7645C74.8015 58.9831 75.1703 58.081 75.9605 57.7495C78.1628 56.8256 79.8366 55.7877 80.9537 54.7095C82.0626 53.6394 82.5547 52.6022 82.603 51.624C82.6603 50.4619 82.0971 49.1428 80.6268 47.7154C79.1578 46.2892 76.9109 44.8899 73.9778 43.633C68.1226 41.1239 59.8473 39.3158 50.5535 38.8673C48.4112 38.7639 46.3157 38.7376 44.2848 38.782C42.9876 40.4657 41.712 42.2543 40.4766 44.1352C39.3454 45.8575 38.2994 47.5787 37.3418 49.282C38.1721 51.2092 39.1031 53.1688 40.1329 55.1394C44.4043 63.3129 49.5037 70.0058 54.2433 74.2307C56.6175 76.3472 58.8379 77.7873 60.7601 78.5165C62.6839 79.2464 64.1314 79.2053 65.1768 78.6712C66.1839 78.1567 67.028 77.0789 67.5465 75.2347C68.0657 73.3884 68.2071 70.9299 67.9145 67.9742C67.3304 62.0731 65.0506 54.5215 61.179 46.6801C60.8024 45.9174 61.1224 44.9973 61.8938 44.6249C62.6652 44.2526 63.5959 44.569 63.9725 45.3317C67.9597 53.4071 70.379 61.3168 71.0083 67.6749C71.3225 70.8487 71.1992 73.7193 70.5415 76.058C69.8833 78.399 68.6385 80.3624 66.6038 81.4018C64.4897 82.4819 62.0489 82.2975 59.6465 81.3861C57.2423 80.474 54.6985 78.7749 52.1617 76.5135C47.0792 71.9828 41.7689 64.9657 37.3712 56.5503C36.7082 55.2818 36.0835 54.0149 35.4978 52.755C33.1646 57.4243 31.538 61.8642 30.6858 65.7085C30.0014 68.796 29.8352 71.4164 30.146 73.4286C30.4571 75.4427 31.2098 76.6659 32.1966 77.2995C33.1249 77.8956 34.4464 78.092 36.2562 77.6663C38.0705 77.2395 40.2249 76.2158 42.6016 74.5974C43.3085 74.116 44.2763 74.2923 44.7633 74.9914C45.2502 75.6903 45.0718 76.6473 44.3648 77.1287C41.804 78.8725 39.2931 80.1112 36.9758 80.6564C34.654 81.2026 32.3777 81.0806 30.5036 79.8773C28.5079 78.5959 27.4615 76.4077 27.073 73.8927C26.6842 71.3758 26.918 68.3493 27.6493 65.0505C28.7053 60.2866 30.8379 54.7815 33.9005 49.1038ZM35.8751 45.6364C35.1107 43.5899 34.4673 41.5982 33.9471 39.689C35.94 39.3668 38.0608 39.1224 40.2825 38.9656C39.4635 40.0948 38.6577 41.2611 37.8695 42.4612C37.1746 43.5192 36.5095 44.5788 35.8751 45.6364Z" fill="white"/>
<path d="M50.1445 54.3485C52.5971 54.3485 54.5853 52.3827 54.5853 49.9577C54.5853 47.5327 52.5971 45.5668 50.1445 45.5668C47.6919 45.5668 45.7036 47.5327 45.7036 49.9577C45.7036 52.3827 47.6919 54.3485 50.1445 54.3485Z" fill="white"/>
<defs>
<linearGradient id="paint0_linear_25_12" x1="50" y1="0" x2="50" y2="100" gradientUnits="userSpaceOnUse">
<stop stop-color="#B2E299"/>
<stop offset="1" stop-color="#03A171"/>
</linearGradient>
</defs>
</svg>
