<svg width="112" height="112" viewBox="0 0 112 112" fill="none" xmlns="http://www.w3.org/2000/svg">
<g clip-path="url(#clip0_24_23)">
<rect width="112" height="112" rx="56" fill="#303030"/>
<path d="M56.0005 -2.33325C25.0763 -2.33325 0 23.373 0 55.0845C0 80.4532 16.0458 101.976 38.2965 109.568C41.0953 110.1 42.1228 108.323 42.1228 106.806C42.1228 105.437 42.0708 100.914 42.0467 96.116C26.4673 99.5893 23.1799 89.3414 23.1799 89.3414C20.6325 82.7047 16.9621 80.94 16.9621 80.94C11.8811 77.3764 17.345 77.4496 17.345 77.4496C22.9685 77.8546 25.9295 83.3665 25.9295 83.3665C30.9241 92.1444 39.0301 89.6067 42.2257 88.1396C42.7283 84.4285 44.1796 81.8956 45.7811 80.4618C33.3427 79.0099 20.2671 74.0865 20.2671 52.0856C20.2671 45.8169 22.4547 40.6949 26.037 36.6739C25.4556 35.2277 23.5388 29.3878 26.5795 21.4789C26.5795 21.4789 31.2821 19.9358 41.9837 27.3645C46.4507 26.0923 51.2413 25.4543 56.0005 25.4324C60.7596 25.4543 65.554 26.0923 70.0293 27.3645C80.7179 19.9358 85.414 21.4789 85.414 21.4789C88.4622 29.3878 86.5444 35.2277 85.963 36.6739C89.5536 40.6949 91.7264 45.8169 91.7264 52.0856C91.7264 74.1388 78.6258 78.9946 66.1558 80.4161C68.1644 82.1979 69.9542 85.6922 69.9542 91.0491C69.9542 98.7316 69.8893 104.915 69.8893 106.806C69.8893 108.334 70.8973 110.124 73.7359 109.56C95.9746 101.96 112 80.4446 112 55.0845C112 23.373 86.9274 -2.33325 56.0005 -2.33325Z" fill="white"/>
<path d="M21.3754 79.7121C21.2523 79.9945 20.8154 80.0792 20.4174 79.8853C20.012 79.6998 19.7843 79.3148 19.9157 79.0314C20.036 78.7405 20.4738 78.6595 20.8783 78.8544C21.2847 79.0399 21.5161 79.4287 21.3754 79.7121Z" fill="#161514"/>
<path d="M23.6395 82.2805C23.3729 82.5319 22.8518 82.4151 22.4982 82.0178C22.1326 81.6215 22.0641 81.0915 22.3344 80.8363C22.6093 80.585 23.1147 80.7026 23.4812 81.099C23.8469 81.5 23.9181 82.0263 23.6395 82.2805Z" fill="#161514"/>
<path d="M25.8435 85.5547C25.501 85.7967 24.941 85.5698 24.5948 85.0643C24.2523 84.5587 24.2523 83.9524 24.6022 83.7095C24.9493 83.4667 25.501 83.6851 25.8518 84.1869C26.1934 84.7009 26.1934 85.3072 25.8435 85.5547Z" fill="#161514"/>
<path d="M28.8621 88.7179C28.5557 89.0616 27.9032 88.9693 27.4256 88.5005C26.9368 88.042 26.8008 87.3914 27.1081 87.0478C27.4182 86.7032 28.0744 86.8002 28.5557 87.2653C29.0408 87.7228 29.1889 88.3781 28.8621 88.7179Z" fill="#161514"/>
<path d="M33.0276 90.5547C32.8924 91 32.264 91.2024 31.6308 91.0132C30.9986 90.8183 30.5849 90.2968 30.7126 89.8467C30.8441 89.3986 31.4753 89.1877 32.1131 89.3901C32.7443 89.5841 33.159 90.1019 33.0276 90.5547Z" fill="#161514"/>
<path d="M37.6027 90.8954C37.6184 91.3642 37.0815 91.7531 36.4169 91.7615C35.7486 91.7766 35.2081 91.3972 35.2007 90.9359C35.2007 90.4624 35.7255 90.0773 36.3938 90.066C37.0584 90.0528 37.6027 90.4294 37.6027 90.8954Z" fill="#161514"/>
<path d="M41.8593 90.1583C41.9389 90.6159 41.477 91.0856 40.817 91.2109C40.1682 91.3314 39.5674 91.0489 39.4851 90.5952C39.4045 90.1263 39.8747 89.6566 40.5227 89.5351C41.1836 89.4184 41.775 89.6933 41.8593 90.1583Z" fill="#161514"/>
</g>
<defs>
<clipPath id="clip0_24_23">
<rect width="112" height="112" rx="56" fill="white"/>
</clipPath>
</defs>
</svg>
